<?xml version="1.0" encoding="UTF-8"?>
<svg width="32px" height="32px" viewBox="0 0 32 32" version="1.1" xmlns="http://www.w3.org/2000/svg" xmlns:xlink="http://www.w3.org/1999/xlink">
    <title>5B685435-4D94-48E8-9977-EB9121C7D4FC@2x</title>
    <g id="Symbols" stroke="none" stroke-width="1" fill="none" fill-rule="evenodd">
        <g id="icon-/-social-/-pinterest-/-dark" fill="#000000">
            <path d="M15.9958865,6 C10.4672974,6 6,10.4755245 6,15.9958865 C6,20.232826 8.63266146,23.8527355 12.3512958,25.3089264 C12.260798,24.5191279 12.1867544,23.301522 12.384204,22.43768 C12.5651995,21.6561086 13.5524476,17.4685315 13.5524476,17.4685315 C13.5524476,17.4685315 13.2562731,16.8679556 13.2562731,15.9876594 C13.2562731,14.5972851 14.0625257,13.5606746 15.0662279,13.5606746 C15.9218429,13.5606746 16.3331962,14.2023858 16.3331962,14.9675031 C16.3331962,15.8231181 15.7902098,17.1065405 15.5022624,18.2994652 C15.2636775,19.2949404 16.0041135,20.10942 16.9831345,20.10942 C18.760181,20.10942 20.1258741,18.2336487 20.1258741,15.5351707 C20.1258741,13.1410942 18.4064171,11.4709996 15.9465241,11.4709996 C13.0999589,11.4709996 11.4298643,13.60181 11.4298643,15.8066639 C11.4298643,16.6622789 11.7589469,17.5837104 12.1703003,18.0855615 C12.252571,18.1842863 12.260798,18.274784 12.2361168,18.3735088 C12.1620732,18.6861374 11.9893048,19.368984 11.9563965,19.5088441 C11.9152612,19.6898396 11.8083093,19.7309749 11.6190868,19.6404772 C10.3850267,19.0481283 9.61168244,17.2217195 9.61168244,15.7573015 C9.61168244,12.6063348 11.8988071,9.71040724 16.2180173,9.71040724 C19.6816125,9.71040724 22.3800905,12.1785274 22.3800905,15.4858083 C22.3800905,18.9329494 20.2081448,21.705471 17.1970383,21.705471 C16.185109,21.705471 15.2307692,21.1789387 14.9099136,20.5536816 C14.9099136,20.5536816 14.4080625,22.4623612 14.2846565,22.931304 C14.0625257,23.8033731 13.4537227,24.8893459 13.0423694,25.5557384 C13.980255,25.8436857 14.9675031,26 16.0041135,26 C21.5244755,26 26,21.5244755 26,16.0041135 C25.9917729,10.4755245 21.5162485,6 15.9958865,6 Z" id="Fill-1"></path>
        </g>
    </g>
</svg>